<svg width="276" height="106" xmlns="http://www.w3.org/2000/svg" version="1.1">

 <g>
  <title>Layer 1</title>
  <path id="svg_1" fill="#FEFEFE" d="m52.18496,156.66668c633.6,0 -338.5153,0 314.2847,0c0,356.4 -2.85714,-204.34344 -2.85714,162.85656c-633.6,0 341.37244,0 -311.42756,0c0,-356.4 0,204.34344 0,-162.85656z"/>
  <path id="svg_2" fill="#585858" d="m29.0259,41.99985c3.48242,2.52646 4.65227,3.9568 6,8c0.66,-2.64 1.32,-5.28 2,-8c3.3,0 6.6,0 10,0c0.20496,0.92684 0.40992,1.85367 0.62109,2.80859c0.26942,1.19754 0.53883,2.39508 0.81641,3.62891c0.26684,1.19496 0.53367,2.38992 0.80859,3.62109c0.45458,2.81188 0.45458,2.81188 1.75391,3.94141c0.99,-4.62 1.98,-9.24 3,-14c2.97,0 5.94,0 9,0c-0.33,3.63 -0.66,7.26 -1,11c4.95,0 9.9,0 15,0c0,-0.99 0,-1.98 0,-3c-1.98,0 -3.96,0 -6,0c0.33,-2.64 0.66,-5.28 1,-8c10.23,0 20.46,0 31,0c-1,10 -1,10 -2,12c2.31,0 4.62,0 7,0c0.14437,-1.2375 0.28875,-2.475 0.4375,-3.75c0.3354,-2.87482 0.85268,-5.41072 1.5625,-8.25c2.97,0 5.94,0 9,0c-1.47178,10.78663 -3.68722,21.36795 -6,32c-2.97,0 -5.94,0 -9,0c0.875,-8.625 0.875,-8.625 2,-12c-2.31,0 -4.62,0 -7,0c-0.06059,0.61488 -0.12117,1.22977 -0.18359,1.86328c-0.12569,1.21236 -0.12569,1.21236 -0.25391,2.44922c-0.12182,1.20076 -0.12182,1.20076 -0.24609,2.42578c-0.31641,2.26172 -0.31641,2.26172 -1.31641,5.26172c-3.66667,0 -7.33333,0 -11,0c-0.39187,1.13437 -0.78375,2.26875 -1.1875,3.4375c-0.59813,1.17562 -1.19625,2.35125 -1.8125,3.5625c-1.65,0.33 -3.3,0.66 -5,1c-1.32,6.27 -2.64,12.54 -4,19c-2.64,0 -5.28,0 -8,0c0.47657,-2.60467 0.95615,-5.20872 1.4375,-7.8125c0.13471,-0.73799 0.26941,-1.47598 0.4082,-2.23633c0.5685,-3.06432 1.1674,-5.99046 2.1543,-8.95117c-1.65,0 -3.3,0 -5,0c-0.12375,1.29937 -0.2475,2.59875 -0.375,3.9375c-1.42714,12.86464 -1.42714,12.86464 -3.625,15.0625c-2.67059,0.14115 -5.32432,0.04247 -8,0c-0.19916,-1.06541 -0.19916,-1.06541 -0.40234,-2.15234c-0.17661,-0.91911 -0.35321,-1.83821 -0.53516,-2.78516c-0.17402,-0.91652 -0.34805,-1.83305 -0.52734,-2.77734c-0.31231,-2.23806 -0.31231,-2.23806 -1.53516,-3.28516c-0.66,3.63 -1.32,7.26 -2,11c-10.23,0 -20.46,0 -31,0c0,-2.64 0,-5.28 0,-8c-1.65,0 -3.3,0 -5,0c0.02062,0.94875 0.04125,1.8975 0.0625,2.875c-0.0625,3.125 -0.0625,3.125 -1.0625,5.125c-2.31,0 -4.62,0 -7,0c1.4321,-21.4321 1.4321,-21.4321 5,-25c2.47164,-0.12683 4.90291,-0.1852 7.375,-0.1875c0.68578,-0.01225 1.37156,-0.02449 2.07812,-0.03711c3.73985,-0.01091 5.35685,0.09793 8.54688,2.22461c0.33,-0.66 0.66,-1.32 1,-2c5.61,0 11.22,0 17,0c-0.33,1.65 -0.66,3.3 -1,5c-2.97,0 -5.94,0 -9,0c0,0.99 0,1.98 0,3c2.31,0.33 4.62,0.66 7,1c-0.33,1.98 -0.66,3.96 -1,6c-2.64,0 -5.28,0 -8,0c-0.33,1.32 -0.66,2.64 -1,4c3.3,0 6.6,0 10,0c0.15469,-1.60875 0.15469,-1.60875 0.3125,-3.25c0.69747,-5.70287 2.21827,-11.20573 3.6875,-16.75c2.31,0 4.62,0 7,0c0.28875,0.88688 0.5775,1.77375 0.875,2.6875c0.95649,2.81632 1.99299,5.56333 3.125,8.3125c1.15263,-5.08839 1.15263,-5.08839 0.0625,-9.9375c-3.25452,-1.67657 -6.42602,-1.76443 -10.0625,-2.0625c-1.32,-4.29 -2.64,-8.58 -4,-13c-1.32,4.29 -2.64,8.58 -4,13c-2.64,0 -5.28,0 -8,0c0.07219,-0.62648 0.14438,-1.25297 0.21875,-1.89844c0.13922,-1.2259 0.13922,-1.2259 0.28125,-2.47656c0.13922,-1.21816 0.13922,-1.21816 0.28125,-2.46094c0.25227,-2.13319 0.25227,-2.13319 0.21875,-4.16406c-0.23074,0.5427 -0.46148,1.08539 -0.69922,1.64453c-0.4892,1.07315 -0.4892,1.07315 -0.98828,2.16797c-0.31324,0.7077 -0.62648,1.41539 -0.94922,2.14453c-1.79278,2.6866 -3.43655,3.69249 -6.36328,5.04297c-2.97266,0.39844 -2.97266,0.39844 -6.0625,0.375c-1.02223,0.00773 -2.04445,0.01547 -3.09766,0.02344c-3.19592,-0.4484 -4.55594,-1.15146 -6.83984,-3.39844c-2.53371,-7.60114 -0.46104,-15.89562 2.94922,-22.96875c4.42366,-7.13381 11.34163,-7.08441 19.05078,-6.03125z"/>
  <path id="svg_3" fill="#595959" d="m46.0259,74.99985c2.31,0 4.62,0 7,0c0.28875,0.88688 0.5775,1.77375 0.875,2.6875c0.95194,2.80293 2.02562,5.56405 3.125,8.3125c0.66,-3.63 1.32,-7.26 2,-11c8.25,0 16.5,0 25,0c-0.33,1.98 -0.66,3.96 -1,6c-1.65,0.33 -3.3,0.66 -5,1c-1.32,6.27 -2.64,12.54 -4,19c-2.64,0 -5.28,0 -8,0c0.47657,-2.60467 0.95615,-5.20872 1.4375,-7.8125c0.13471,-0.73799 0.26941,-1.47598 0.4082,-2.23633c0.5685,-3.06432 1.1674,-5.99046 2.1543,-8.95117c-1.65,0 -3.3,0 -5,0c-0.18563,1.94906 -0.18563,1.94906 -0.375,3.9375c-1.42714,12.86464 -1.42714,12.86464 -3.625,15.0625c-2.67059,0.14115 -5.32432,0.04247 -8,0c-0.19916,-1.06541 -0.19916,-1.06541 -0.40234,-2.15234c-0.17661,-0.91911 -0.35321,-1.83821 -0.53516,-2.78516c-0.17402,-0.91652 -0.34805,-1.83305 -0.52734,-2.77734c-0.31231,-2.23806 -0.31231,-2.23806 -1.53516,-3.28516c-0.66,3.63 -1.32,7.26 -2,11c-10.23,0 -20.46,0 -31,0c0,-2.64 0,-5.28 0,-8c-1.65,0 -3.3,0 -5,0c0.02063,0.94875 0.04125,1.8975 0.0625,2.875c-0.0625,3.125 -0.0625,3.125 -1.0625,5.125c-2.31,0 -4.62,0 -7,0c1.4321,-21.4321 1.4321,-21.4321 5,-25c2.47164,-0.12683 4.90291,-0.1852 7.375,-0.1875c0.68578,-0.01225 1.37156,-0.02449 2.07812,-0.03711c3.73985,-0.01091 5.35685,0.09793 8.54688,2.22461c0.33,-0.66 0.66,-1.32 1,-2c5.61,0 11.22,0 17,0c-0.33,1.65 -0.66,3.3 -1,5c-2.97,0 -5.94,0 -9,0c0,0.99 0,1.98 0,3c2.31,0.33 4.62,0.66 7,1c-0.33,1.98 -0.66,3.96 -1,6c-2.64,0 -5.28,0 -8,0c-0.33,1.32 -0.66,2.64 -1,4c3.3,0 6.6,0 10,0c0.10312,-1.0725 0.20625,-2.145 0.3125,-3.25c0.69747,-5.70287 2.21827,-11.20573 3.6875,-16.75z"/>
  <path id="svg_4" fill="#5B5B5B" d="m89.0259,74.99985c3.3,0 6.6,0 10,0c0.66,5.94 1.32,11.88 2,18c0.94561,-5.17493 0.94561,-5.17493 1.88452,-10.35107c1.00437,-5.42671 1.00437,-5.42671 2.11548,-7.64893c2.31,0 4.62,0 7,0c-0.43385,7.03129 -1.74322,13.32902 -4,20c2.64,0 5.28,0 8,0c0,-0.66 0,-1.32 0,-2c2.31,0 4.62,0 7,0c0,0.99 0,1.98 0,3c1.32,-0.33 2.64,-0.66 4,-1c0,-0.99 0,-1.98 0,-3c-0.5659,-0.27715 -1.1318,-0.5543 -1.71484,-0.83984c-0.73348,-0.36223 -1.46696,-0.72446 -2.22266,-1.09766c-0.7309,-0.35965 -1.4618,-0.7193 -2.21484,-1.08984c-1.84766,-0.97266 -1.84766,-0.97266 -2.84766,-1.97266c-0.375,-2.75 -0.375,-2.75 0,-6c4.89093,-5.79189 4.89093,-5.79189 9.05859,-6.20313c0.78504,-0.01546 1.57008,-0.03093 2.37891,-0.04687c0.78246,-0.02578 1.56492,-0.05156 2.37109,-0.07813c2.19141,0.32813 2.19141,0.32813 3.96485,1.64454c1.82362,2.50312 1.42679,4.68007 1.22656,7.68359c-2.31,0 -4.62,0 -7,0c0,-0.99 0,-1.98 0,-3c-1.32,0 -2.64,0 -4,0c0.71004,3.27857 0.71004,3.27857 3.9375,4.5625c1.01062,0.47438 2.02125,0.94875 3.0625,1.4375c2,2 2,2 2.3125,5.375c-0.32239,3.73967 -0.65536,5.06627 -3.3125,7.625c-2.94827,0.98276 -4.92653,1.13415 -8,1.125c-1.29937,0.00387 -1.29937,0.00387 -2.625,0.00781c-2.375,-0.13281 -2.375,-0.13281 -5.375,-1.13281c-0.495,0.495 -0.495,0.495 -1,1c-1.63473,0.087 -3.27314,0.10701 -4.91016,0.09766c-0.98935,-0.00323 -1.97871,-0.00645 -2.99804,-0.00977c-1.04092,-0.00838 -2.08184,-0.01676 -3.1543,-0.02539c-1.04479,-0.00451 -2.08957,-0.00902 -3.16602,-0.01367c-2.59055,-0.01183 -5.18099,-0.02831 -7.77148,-0.04883c0,-1.32 0,-2.64 0,-4c-2.31,0 -4.62,0 -7,0c-0.33,1.32 -0.66,2.64 -1,4c-2.64,0 -5.28,0 -8,0c1.24762,-2.8344 2.49803,-5.66752 3.75,-8.5c0.34805,-0.79148 0.69609,-1.58297 1.05469,-2.39844c2.2619,-5.11023 4.65953,-10.12138 7.19531,-15.10156z"/>
  <path id="svg_5" fill="#030303" d="m108.0259,3.99985c10.33607,-0.12735 20.66423,-0.12887 31,0c0.88091,0.00628 1.76183,0.01257 2.66943,0.01904c17.27448,0.31707 34.75849,9.16529 50.33057,15.98096c0,0.33 0,0.66 0,1c-8.38856,0.06957 -16.777,0.12285 -25.16578,0.15544c-3.89545,0.01564 -7.7907,0.03685 -11.68603,0.07088c-3.76068,0.03264 -7.52116,0.05054 -11.28197,0.05831c-1.43331,0.00554 -2.86661,0.01634 -4.29983,0.03256c-2.01056,0.02184 -4.0213,0.02304 -6.03197,0.02339c-1.14361,0.00666 -2.28723,0.01332 -3.4655,0.02018c-5.65276,-0.6645 -9.08038,-4.104 -13.13142,-7.86076c-2.36022,-2.18202 -4.63381,-4.28212 -7.24609,-6.15625c-0.55817,-0.44344 -1.11633,-0.88687 -1.69141,-1.34375c0,-0.66 0,-1.32 0,-2z"/>
  <path id="svg_6" fill="#060606" d="m171.0259,68.99985c3.58414,-0.10788 7.16503,-0.18726 10.75,-0.25c1.01578,-0.03352 2.03156,-0.06703 3.07813,-0.10156c7.57622,-0.09969 7.57622,-0.09969 10.75,2.30469c0.70382,1.0132 0.70382,1.0132 1.42187,2.04687c9.44871,4.72436 25.85328,2.15591 36.38821,2.23117c1.50923,0.01236 3.01843,0.02971 4.52753,0.05255c11.5944,0.16374 22.99748,-0.58813 34.08426,-4.28372c1,1 1,1 1.3125,3.375c-0.3125,2.625 -0.3125,2.625 -2.05078,4.21875c-9.52011,5.91924 -24.8859,4.56187 -35.71094,4.57422c-1.05573,0.00333 -2.11145,0.00666 -3.19917,0.01008c-2.22438,0.00503 -4.44876,0.00741 -6.67314,0.00725c-3.31288,0.00217 -6.62542,0.0203 -9.93824,0.03931c-15.00488,0.03805 -29.80439,-0.80815 -44.74023,-2.22461c0,-3.96 0,-7.92 0,-12z"/>
  <path id="svg_7" fill="#585858" d="m72.0259,41.99985c10.23,0 20.46,0 31,0c-1,10 -1,10 -2,12c2.31,0 4.62,0 7,0c0.14437,-1.2375 0.28875,-2.475 0.4375,-3.75c0.3354,-2.87482 0.85268,-5.41072 1.5625,-8.25c2.97,0 5.94,0 9,0c-1.47178,10.78663 -3.68722,21.36795 -6,32c-2.97,0 -5.94,0 -9,0c0.875,-8.625 0.875,-8.625 2,-12c-2.31,0 -4.62,0 -7,0c-0.09088,0.92232 -0.09088,0.92232 -0.18359,1.86328c-0.08379,0.80824 -0.16758,1.61649 -0.25391,2.44922c-0.08121,0.80051 -0.16242,1.60102 -0.24609,2.42578c-0.31641,2.26172 -0.31641,2.26172 -1.31641,5.26172c-2.97,0 -5.94,0 -9,0c0.71378,-8.1371 2.32774,-16.01732 4,-24c-1.98,0 -3.96,0 -6,0c-0.33,2.31 -0.66,4.62 -1,7c-0.76313,-0.30937 -1.52625,-0.61875 -2.3125,-0.9375c-1.8754,-0.74144 -3.77435,-1.42478 -5.6875,-2.0625c0,-1.32 0,-2.64 0,-4c-1.98,0 -3.96,0 -6,0c0.33,-2.64 0.66,-5.28 1,-8z"/>
  <path id="svg_8" fill="#777777" d="m86.0259,49.99985c1.98,0 3.96,0 6,0c-0.66355,6.7461 -1.71866,13.34449 -3,20c-0.66,0 -1.32,0 -2,0c-0.12375,0.61875 -0.2475,1.2375 -0.375,1.875c-0.625,2.125 -0.625,2.125 -2.625,4.125c-2.52197,0.13525 -2.52197,0.13525 -5.66406,-0.02344c-1.12149,-0.05156 -2.24297,-0.10312 -3.39844,-0.15625c-1.17563,-0.06445 -2.35125,-0.1289 -3.5625,-0.19531c-1.18336,-0.05672 -2.36672,-0.11344 -3.58594,-0.17187c-2.93027,-0.14179 -5.85973,-0.29323 -8.78906,-0.45313c-0.33,0.99 -0.66,1.98 -1,3c-3.69855,-3.69855 -4.75274,-6.72022 -5.09766,-11.79297c0.20316,-4.59128 2.43148,-7.38194 5.22657,-10.84375c3.56877,-2.93756 6.25415,-3.09566 10.68359,-2.92578c0.70834,0.01225 1.41668,0.02449 2.14648,0.03711c5.65633,0.22375 9.3806,1.41844 14.04102,4.52539c0.33,-2.31 0.66,-4.62 1,-7z"/>
  <path id="svg_9" fill="#080808" d="m107.03371,11.35532c4.14664,3.34783 7.14364,7.15592 9.99219,11.64453c0,0.66 0,1.32 0,2c-3.8919,0.14548 -7.78391,0.28772 -11.67603,0.42725c-1.95766,0.0708 -3.91523,0.14401 -5.8728,0.21728c-2.55831,0.09114 -5.11703,0.17146 -7.67603,0.24097c-2.49659,0.07572 -4.9924,0.18602 -7.48584,0.33252c-8.60486,0.35871 -8.60486,0.35871 -12.01977,-2.5188c-0.48082,-0.99387 -0.96164,-1.98773 -1.45703,-3.01172c-0.50918,-0.98613 -1.01836,-1.97226 -1.54297,-2.98828c-0.41895,-0.89074 -0.83789,-1.78148 -1.26953,-2.69922c-0.66,-0.99 -1.32,-1.98 -2,-3c13.29128,-6.61353 28.01074,-9.41882 41.00781,-0.64453z"/>
  <path id="svg_10" fill="#575757" d="m37.0259,41.99985c3.3,0 6.6,0 10,0c0.20496,0.92684 0.40992,1.85367 0.62109,2.80859c0.26942,1.19754 0.53883,2.39508 0.81641,3.62891c0.26684,1.19496 0.53367,2.38992 0.80859,3.62109c0.45458,2.81188 0.45458,2.81188 1.75391,3.94141c0.99,-4.62 1.98,-9.24 3,-14c2.97,0 5.94,0 9,0c-2.36127,12.93896 -2.36127,12.93896 -5.625,16.25c-3.18084,3.68308 -3.49668,6.96955 -3.375,11.75c0.29081,1.34325 0.6122,2.68148 1,4c-2.64,0 -5.28,0 -8,0c-1.32,-4.29 -2.64,-8.58 -4,-13c-1.32,4.29 -2.64,8.58 -4,13c-2.64,0 -5.28,0 -8,0c0.65059,-7.17143 1.98126,-14.04213 3.5625,-21.0625c0.23396,-1.05639 0.46793,-2.11277 0.70898,-3.20117c0.57198,-2.57971 1.14966,-5.15816 1.72852,-7.73633z"/>
  <path id="svg_11" fill="#020202" d="m226.0259,32.99985c3.29149,-0.08858 6.58267,-0.14091 9.875,-0.1875c0.91781,-0.02514 1.83563,-0.05027 2.78125,-0.07617c8.40964,-0.08884 15.58084,1.08259 22.34375,6.26367c0.99,0.33 1.98,0.66 3,1c3.12801,5.02715 3.12801,5.02715 2.6875,8.375c-0.22687,0.53625 -0.45375,1.0725 -0.6875,1.625c-1.32,-1.98 -2.64,-3.96 -4,-6c0,2.31 0,4.62 0,7c-4.58426,-0.05179 -9.16663,-0.14685 -13.75,-0.25c-1.30195,-0.01418 -2.60391,-0.02836 -3.94531,-0.04297c-1.25039,-0.03223 -2.50078,-0.06445 -3.78906,-0.09765c-1.1521,-0.02095 -2.3042,-0.0419 -3.49122,-0.06348c-4.39569,-0.79341 -5.9203,-3.11822 -8.54394,-6.51074c-0.42668,-0.65098 -0.85336,-1.30196 -1.29297,-1.97266c-0.43957,-0.6484 -0.87914,-1.2968 -1.33203,-1.96484c-1.10495,-2.70939 -0.63977,-4.33095 0.14453,-7.09766z"/>
  <path id="svg_12" fill="#575757" d="m122.97536,41.88632c0.83265,0.00524 1.66531,0.01047 2.52319,0.01587c0.89912,0.00322 1.79825,0.00644 2.72461,0.00976c1.41829,0.01257 1.41829,0.01257 2.86524,0.0254c0.94939,0.00451 1.89879,0.00902 2.87695,0.01367c2.35358,0.01182 4.70703,0.02831 7.06055,0.04883c-0.33,2.31 -0.66,4.62 -1,7c-3.96,0 -7.92,0 -12,0c0,1.65 0,3.3 0,5c2.97,0 5.94,0 9,0c-0.33,2.31 -0.66,4.62 -1,7c-3.3,0 -6.6,0 -10,0c-0.33,1.98 -0.66,3.96 -1,6c3.63,0 7.26,0 11,0c-0.33,2.31 -0.66,4.62 -1,7c-6.93,0 -13.86,0 -21,0c0.61875,-3.07313 1.2375,-6.14625 1.875,-9.3125c1.3313,-6.61521 2.62267,-13.2296 3.73047,-19.88672c0.54483,-2.48683 0.7775,-2.76485 3.34399,-2.91431z"/>
  <path id="svg_13" fill="#101010" d="m208.68533,23.48911c2.40453,0.2609 4.81058,0.49991 7.21753,0.7373c8.00399,0.82748 15.83695,1.9765 23.68164,3.78907c1.08149,0.24771 1.08149,0.24771 2.18483,0.50042c4.99919,1.22657 4.99919,1.22657 7.25658,3.48395c-8.91,0 -17.82,0 -27,0c1.32,3.3 2.64,6.6 4,10c0.99,2.475 0.99,2.475 2,5c-0.68063,-0.70125 -1.36125,-1.4025 -2.0625,-2.125c-3.17445,-3.14777 -6.40713,-6.12754 -9.9375,-8.875c-0.57621,-0.45762 -1.15243,-0.91523 -1.7461,-1.38672c-7.38381,-4.9473 -16.41414,-5.23878 -25.01172,-6.31347c-2.56631,-0.34315 -5.08429,-0.82777 -7.61718,-1.36231c-3.72056,-0.66147 -7.41335,-1.15609 -11.17579,-1.5039c-1.00562,-0.09338 -2.01125,-0.18676 -3.04736,-0.28296c-4.46607,-0.39847 -8.93316,-0.78283 -13.40185,-1.15064c0,-0.33 0,-0.66 0,-1c2.95807,-0.17291 5.9163,-0.3383 8.875,-0.5c0.80308,-0.04769 1.60617,-0.09539 2.43359,-0.14453c14.55525,-0.77776 28.86361,-0.45215 43.35083,1.13379z"/>
  <path id="svg_14" fill="#5F5F5F" d="m16.3384,75.68735c1.0161,-0.04351 1.0161,-0.04351 2.05273,-0.08789c3.43389,-0.04364 5.31086,0.1651 8.11915,2.20508c1.89749,2.74843 1.66446,4.47266 1.07812,7.6914c-0.18562,0.82629 -0.37125,1.65258 -0.5625,2.50391c-0.2475,1.12535 -0.495,2.2507 -0.75,3.41016c-0.72499,3.20318 -1.47639,6.3981 -2.25,9.58984c-2.31,0 -4.62,0 -7,0c0,-2.64 0,-5.28 0,-8c-1.65,0 -3.3,0 -5,0c0.02062,0.94875 0.04125,1.8975 0.0625,2.875c-0.0625,3.125 -0.0625,3.125 -1.0625,5.125c-2.31,0 -4.62,0 -7,0c1.68142,-25.16333 1.68142,-25.16333 12.3125,-25.3125z"/>
  <path id="svg_15" fill="#F9F9F9" d="m118.0259,44.99985c0.66,0.66 1.32,1.32 2,2c-0.10156,2.03906 -0.10156,2.03906 -0.625,4.625c-0.19594,0.96809 -0.39187,1.93617 -0.59375,2.93359c-1.47821,6.51151 -3.12272,12.97313 -4.78125,19.44141c5.94,0 11.88,0 18,0c0,0.33 0,0.66 0,1c-0.60328,0.09797 -1.20656,0.19594 -1.82812,0.29688c-3.72844,0.69757 -6.5723,1.29365 -9.73438,3.45312c-1.85013,2.89586 -1.74397,4.87884 -1.4375,8.25c4.455,2.475 4.455,2.475 9,5c-0.33,1.32 -0.66,2.64 -1,4c-1.32,0 -2.64,0 -4,0c0,-0.99 0,-1.98 0,-3c-2.31,0 -4.62,0 -7,0c0,0.66 0,1.32 0,2c-2.64,0 -5.28,0 -8,0c1.32,-6.6 2.64,-13.2 4,-20c-2.31,0 -4.62,0 -7,0c-0.19336,1.25297 -0.38672,2.50594 -0.58594,3.79688c-0.26267,1.65109 -0.52571,3.30213 -0.78906,4.95312c-0.12633,0.825 -0.25266,1.65 -0.38281,2.5c-0.12891,0.79922 -0.25782,1.59844 -0.39063,2.42188c-0.11521,0.73315 -0.23042,1.4663 -0.34912,2.22167c-0.50244,2.10645 -0.50244,2.10645 -2.50244,6.10645c-0.33,-7.26 -0.66,-14.52 -1,-22c-0.99,-0.33 -1.98,-0.66 -3,-1c0.99,-3.96 1.98,-7.92 3,-12c2.31,0 4.62,0 7,0c-0.66,3.96 -1.32,7.92 -2,12c2.97,0 5.94,0 9,0c0.0825,-1.25812 0.165,-2.51625 0.25,-3.8125c0.82522,-8.5109 2.90972,-16.85061 4.75,-25.1875z"/>
  <path id="svg_16" fill="#EDEDED" d="m33.0259,54.99985c0.33,0 0.66,0 1,0c-0.51554,6.4985 -1.46668,12.66227 -3,19c2.64,0 5.28,0 8,0c0.13277,-0.73605 0.26555,-1.47211 0.40234,-2.23047c0.26491,-1.46373 0.26491,-1.46373 0.53516,-2.95703c0.26104,-1.44439 0.26104,-1.44439 0.52734,-2.91797c0.48753,-2.63693 1.00187,-5.26652 1.53516,-7.89453c2.20665,3.30998 2.78262,5.82021 3.625,9.6875c0.39059,1.76924 0.39059,1.76924 0.78906,3.57422c0.19336,0.90363 0.38672,1.80726 0.58594,2.73828c1.2375,-0.0825 2.475,-0.165 3.75,-0.25c2.95137,0.03151 4.19179,0.21951 6.875,1.625c2.22781,4.2531 0.6338,8.16816 -0.625,12.625c-1.90319,-2.85478 -2.46191,-4.41941 -3.125,-7.6875c-0.25137,-1.21236 -0.25137,-1.21236 -0.50781,-2.44922c-0.12117,-0.61488 -0.24235,-1.22976 -0.36719,-1.86328c-2.31,-0.33 -4.62,-0.66 -7,-1c-0.18176,1.16016 -0.18176,1.16016 -0.36719,2.34375c-0.96133,5.97507 -2.05941,11.81218 -3.63281,17.65625c-3.3,0 -6.6,0 -10,0c0.33,-1.32 0.66,-2.64 1,-4c2.64,0 5.28,0 8,0c0.33,-1.98 0.66,-3.96 1,-6c-2.64,0 -5.28,0 -8,0c0.33,-1.32 0.66,-2.64 1,-4c2.97,0 5.94,0 9,0c0,-1.32 0,-2.64 0,-4c-5.28,-0.33 -10.56,-0.66 -16,-1c-0.33,1.32 -0.66,2.64 -1,4c-0.33645,-0.48082 -0.67289,-0.96164 -1.01953,-1.45703c-2.95096,-2.29907 -6.06756,-2.11281 -9.66797,-2.23047c-1.05284,-0.05124 -1.05284,-0.05124 -2.12695,-0.10352c-1.72796,-0.08228 -3.45673,-0.14731 -5.18555,-0.20898c3.838,-2.20707 7.1168,-2.35026 11.46484,-2.55859c3.16397,-0.55089 4.99674,-1.4704 7.53516,-3.44141c1.41372,-2.54818 1.41372,-2.54818 2.25,-5.4375c0.31453,-0.94746 0.62906,-1.89492 0.95312,-2.87109c0.65782,-2.22174 1.26392,-4.437 1.79688,-6.69141z"/>
  <path id="svg_17" fill="#F6F6F6" d="m65.5884,60.56235c3.4375,0.4375 3.4375,0.4375 6.4375,2.4375c0.66,-0.66 1.32,-1.32 2,-2c3.5,-0.25 3.5,-0.25 7,0c2,2 2,2 2.25,4.875c-0.24053,3.00665 -0.59553,4.6433 -2.25,7.125c-3.01868,1.50934 -5.67297,1.17511 -9,1c-0.99,-0.66 -1.98,-1.32 -3,-2c-0.66,0.66 -1.32,1.32 -2,2c-6.32258,0.33871 -6.32258,0.33871 -9,-1c-0.31087,-3.9636 -0.32482,-6.38933 1.5625,-9.9375c2.4375,-2.0625 2.4375,-2.0625 6,-2.5z"/>
  <path id="svg_18" fill="#EBEBEB" d="m118.0259,44.99985c0.66,0.66 1.32,1.32 2,2c-0.10156,2.03906 -0.10156,2.03906 -0.625,4.625c-0.19594,0.96809 -0.39187,1.93617 -0.59375,2.93359c-1.47783,6.50985 -3.11083,12.97865 -4.78125,19.44141c-0.33,0 -0.66,0 -1,0c0.647,-9.86676 2.8738,-19.36781 5,-29zm-19,17c2.31,0 4.62,0 7,0c-0.66,3.96 -1.32,7.92 -2,12c2.97,0 5.94,0 9,0c-0.33,0.99 -0.66,1.98 -1,3c0,-0.66 0,-1.32 0,-2c-2.31,0 -4.62,0 -7,0c-0.19336,1.25297 -0.38672,2.50594 -0.58594,3.79688c-0.26267,1.65109 -0.52571,3.30213 -0.78906,4.95312c-0.12633,0.825 -0.25266,1.65 -0.38281,2.5c-0.12891,0.79922 -0.25782,1.59844 -0.39063,2.42188c-0.11521,0.73315 -0.23042,1.4663 -0.34912,2.22167c-0.50244,2.10645 -0.50244,2.10645 -2.50244,6.10645c-0.33,-7.26 -0.66,-14.52 -1,-22c-0.99,-0.33 -1.98,-0.66 -3,-1c0.99,-3.96 1.98,-7.92 3,-12z"/>
  <path id="svg_19" fill="#0A0A0A" d="m62.3384,14.24522c4.18473,1.75175 6.4834,5.23185 8.6875,9.125c0,0.99 0,1.98 0,3c-8.91,0.66 -17.82,1.32 -27,2c4.49761,-6.74641 4.49761,-6.74641 8.5625,-9.25c0.76441,-0.47953 1.52883,-0.95906 2.31641,-1.45312c0.69996,-0.42797 1.39992,-0.85594 2.12109,-1.29688c3,-2 3,-2 5.3125,-2.125z"/>
  <path id="svg_20" fill="#111111" d="m147.0259,41.99985c5.00923,0.24435 7.83523,1.81341 11.38672,5.16016c5.79564,6.60955 6.19113,13.61308 5.93359,22.17187c-0.56205,6.43623 -1.59126,11.52941 -5.69531,16.60547c-7.05123,5.54025 -7.05123,5.54025 -12.625,5.0625c1.80294,-1.20196 3.61326,-2.39312 5.4375,-3.5625c6.46798,-6.15247 7.53791,-14.65158 7.875,-23.1875c-0.04876,-6.52523 -1.42007,-12.89602 -5.78125,-17.95312c-1.99469,-1.68938 -4.08151,-2.43616 -6.53125,-3.29688c0,-0.33 0,-0.66 0,-1z"/>
  <path id="svg_21" fill="#0A0A0A" d="m253.0259,84.99985c-5.00317,6.21084 -11.83696,8.34268 -19.5625,9.5625c-4.96229,-0.81201 -9.22593,-2.82921 -13.4375,-5.5625c-0.66,-0.99 -1.32,-1.98 -2,-3c4.14572,-0.1696 8.29159,-0.33514 12.4375,-0.5c1.16467,-0.0477 2.32934,-0.09539 3.5293,-0.14453c6.35061,-0.25045 12.67772,-0.40985 19.0332,-0.35547z"/>
  <path id="svg_22" fill="#080808" d="m204.7134,32.74985c5.68892,0.42935 10.30967,3.24717 14.3125,7.25c0.3125,2.75 0.3125,2.75 0,5c-3.44475,2.11984 -5.99138,2.6288 -10,2c-2.81135,-1.61883 -4.98909,-3.45174 -7,-6c-1,-3.8125 -1,-3.8125 -1,-7c1,-1 1,-1 3.6875,-1.25z"/>
  <path id="svg_23" fill="#060606" d="m194.0259,32.99985c3.24428,1.67576 5.45981,3.81832 7,7.1875c0,0.59812 0,1.19625 0,1.8125c-2.66995,2.66995 -4.59283,2.95391 -8.3125,3.375c-4.98711,-0.50716 -6.36825,-1.65096 -9.6875,-5.375c-0.375,-3.3125 -0.375,-3.3125 0,-6c3.48953,-1.74477 7.19294,-1.57489 11,-1z"/>
  <path id="svg_24" fill="#101010" d="m165.0259,73.99985c0.33,0 0.66,0 1,0c0,3.3 0,6.6 0,10c2.31,0 4.62,0 7,0c-1.51018,3.84409 -3.55664,5.75433 -7,8c-3.55078,0.39063 -3.55078,0.39063 -7.3125,0.25c-1.25426,-0.03609 -2.50852,-0.07219 -3.80078,-0.10937c-0.95262,-0.04641 -1.90524,-0.09282 -2.88672,-0.14063c0.60715,-0.4473 1.2143,-0.89461 1.83984,-1.35547c5.82579,-4.43518 9.75462,-9.33573 11.16016,-16.64453z"/>
  <path id="svg_25" fill="#F5F5F5" d="m20.0259,48.99985c1.32,0 2.64,0 4,0c0.34637,6.37579 0.41725,11.46169 -3,17c-2.625,1 -2.625,1 -5,1c-0.33,-0.33 -0.66,-0.66 -1,-1c1.13208,-13.13208 1.13208,-13.13208 5,-17z"/>
  <path id="svg_26" fill="#CDCDCD" d="m33.0259,54.99985c0.33,0 0.66,0 1,0c-0.54957,6.79731 -1.57095,13.33109 -3,20c4.62,0 9.24,0 14,0c0,0.33 0,0.66 0,1c-5.61,0 -11.22,0 -17,0c-0.33,1.32 -0.66,2.64 -1,4c-0.33645,-0.48082 -0.67289,-0.96164 -1.01953,-1.45703c-2.95096,-2.29907 -6.06756,-2.11281 -9.66797,-2.23047c-1.05284,-0.05124 -1.05284,-0.05124 -2.12695,-0.10352c-1.72796,-0.08228 -3.45673,-0.14731 -5.18555,-0.20898c3.838,-2.20707 7.1168,-2.35026 11.46484,-2.55859c3.16397,-0.55089 4.99674,-1.4704 7.53516,-3.44141c1.41372,-2.54818 1.41372,-2.54818 2.25,-5.4375c0.31453,-0.94746 0.62906,-1.89492 0.95312,-2.87109c0.65782,-2.22174 1.26392,-4.437 1.79688,-6.69141z"/>
  <path id="svg_27" fill="#323232" d="m53.0259,11.99985c0.66,0.33 1.32,0.66 2,1c-0.65484,0.53367 -1.30969,1.06734 -1.98437,1.61719c-0.91266,0.74508 -1.82532,1.49015 -2.76563,2.25781c-1.01578,0.825 -2.03156,1.65 -3.07813,2.5c-2.01342,1.6489 -3.96163,3.32902 -5.90625,5.0625c-10.16218,8.9565 -22.45445,16.94919 -35.26562,21.5625c-0.99,-0.33 -1.98,-0.66 -3,-1c0.99258,-0.47309 1.98516,-0.94617 3.00781,-1.43359c13.29463,-6.4281 25.16213,-13.53869 36.19971,-23.40528c3.43427,-3.0684 6.90041,-5.69342 10.79248,-8.16113z"/>
  <path id="svg_28" fill="#BFBFBF" d="m141.0259,19.99985c17.16,0 34.32,0 52,0c0,0.66 0,1.32 0,2c0.99,0.33 1.98,0.66 3,1c-10.56,0 -21.12,0 -32,0c0,-0.66 0,-1.32 0,-2c-7.59,0 -15.18,0 -23,0c0,-0.33 0,-0.66 0,-1z"/>
  <path id="svg_29" fill="#F7F7F7" d="m86.0259,49.99985c1.98,0 3.96,0 6,0c-0.58491,6.14154 -1.54066,12.0068 -3,18c-0.30551,-0.61488 -0.61102,-1.22977 -0.92578,-1.86328c-0.73065,-1.45333 -1.48565,-2.89462 -2.26172,-4.32422c-1.17289,-4.06 -0.47719,-7.68963 0.1875,-11.8125z"/>
  <path id="svg_30" fill="#EBEBEB" d="m251.0259,30.99985c0.66,0.66 1.32,1.32 2,2c-5.63527,1.20485 -11.14536,1.11296 -16.875,1.0625c-0.97453,-0.00451 -1.94906,-0.00902 -2.95313,-0.01367c-2.39068,-0.01172 -4.78124,-0.02813 -7.17187,-0.04883c0.57344,3.4467 1.43862,6.22188 3.0625,9.3125c0.36223,0.69738 0.72445,1.39477 1.09766,2.11328c0.27714,0.51949 0.55429,1.03899 0.83984,1.57422c-0.66,0 -1.32,0 -2,0c-0.33,0.66 -0.66,1.32 -1,2c-0.43313,-1.03125 -0.86625,-2.0625 -1.3125,-3.125c-1.03364,-2.43643 -2.13226,-4.71511 -3.375,-7.0625c-1.3125,-2.8125 -1.3125,-2.8125 -1.3125,-6.8125c24.59758,-1.51536 24.59758,-1.51536 29,-1z"/>
  <path id="svg_31" fill="#C9C9C9" d="m164.0259,61.99985c0.33,0 0.66,0 1,0c0.06059,0.71027 0.12117,1.42055 0.18359,2.15234c0.08379,0.91911 0.16758,1.83821 0.25391,2.78516c0.08121,0.91652 0.16242,1.83305 0.24609,2.77734c0.07686,2.24676 0.07686,2.24676 1.31641,3.28516c0.07227,1.85288 0.08381,3.70834 0.0625,5.5625c-0.00902,1.01191 -0.01805,2.02383 -0.02734,3.06641c-0.01161,0.78246 -0.02321,1.56492 -0.03516,2.37109c-0.33,0 -0.66,0 -1,0c-0.33,-1.98 -0.66,-3.96 -1,-6c-0.21914,0.51949 -0.43828,1.03898 -0.66406,1.57422c-2.35778,5.18518 -4.73076,8.07656 -9.33594,11.42578c1.98,0.33 3.96,0.66 6,1c0,0.33 0,0.66 0,1c-3.3,0 -6.6,0 -10,0c0,-0.99 0,-1.98 0,-3c1.0725,-0.495 2.145,-0.99 3.25,-1.5c4.34624,-2.56384 6.3689,-5.69739 7.75,-10.5c0.97304,-5.29485 1.50588,-10.64274 2,-16z"/>
  <path id="svg_32" fill="#FBFBFB" d="m42.0259,89.99985c0,1.65 0,3.3 0,5c-3.3,0 -6.6,0 -10,0c0.33,-1.32 0.66,-2.64 1,-4c7.875,-1 7.875,-1 9,-1z"/>
  <path id="svg_33" fill="#E8E8E8" d="m54.0259,75.99985c1.32,0.33 2.64,0.66 4,1c1.6008,4.002 0.2928,7.04556 -1,11c-2.0235,-3.03525 -2.32124,-4.19426 -2.625,-7.6875c-0.07477,-0.80824 -0.14953,-1.61648 -0.22656,-2.44922c-0.04899,-0.61488 -0.09797,-1.22976 -0.14844,-1.86328z"/>
  <path id="svg_34" fill="#202020" d="m261.0259,38.99985c3,1 3,1 4.75,3.8125c1.23589,3.15153 1.53222,4.15679 0.25,7.1875c-4,-5.75 -4,-5.75 -4,-8c-0.66,-0.33 -1.32,-0.66 -2,-1c0.33,-0.66 0.66,-1.32 1,-2z"/>
  <path id="svg_35" fill="#707070" d="m214.0259,35.99985c2.5,1.6875 2.5,1.6875 5,4c0.3125,2.75 0.3125,2.75 0,5c-0.99,0.33 -1.98,0.66 -3,1c-0.66,-3.3 -1.32,-6.6 -2,-10z"/>
  <path id="svg_36" fill="#F6F6F6" d="m15.0259,80.99985c1.32,0 2.64,0 4,0c0,1.65 0,3.3 0,5c-1.65,0.33 -3.3,0.66 -5,1c0.33,-1.98 0.66,-3.96 1,-6z"/>
  <path id="svg_37" fill="#808080" d="m192.0259,32.99985c4.4189,1.35022 6.34345,3.26116 9,7c-0.66,1.32 -1.32,2.64 -2,4c0,-1.65 0,-3.3 0,-5c-0.59812,-0.28875 -1.19625,-0.5775 -1.8125,-0.875c-2.1875,-1.125 -2.1875,-1.125 -5.1875,-3.125c0,-0.66 0,-1.32 0,-2z"/>
  <path id="svg_38" fill="#D9D9D9" d="m224.0259,37.99985c3,1 3,1 4.16797,2.84766c0.33644,0.73089 0.67289,1.46179 1.01953,2.21484c0.34418,0.73348 0.68836,1.46695 1.04297,2.22266c0.25394,0.56589 0.50789,1.13179 0.76953,1.71484c-0.66,0 -1.32,0 -2,0c-0.33,0.66 -0.66,1.32 -1,2c-3.28571,-7.42857 -3.28571,-7.42857 -4,-11z"/>
  <path id="svg_39" fill="#B0B0B0" d="m245.5884,30.74985c0.97066,-0.00516 1.94133,-0.01031 2.94141,-0.01562c2.49609,0.26562 2.49609,0.26562 4.49609,2.26562c-5.50017,1.30267 -10.47032,0.71033 -16,0c3.36351,-2.24234 4.6231,-2.27098 8.5625,-2.25z"/>
  <path id="svg_40" fill="#878787" d="m64.0259,63.99985c0.66,0 1.32,0 2,0c0,0.66 0,1.32 0,2c1.32,0.33 2.64,0.66 4,1c-1.98,0 -3.96,0 -6,0c0.33,1.32 0.66,2.64 1,4c-0.99,0 -1.98,0 -3,0c-0.125,-2.375 -0.125,-2.375 0,-5c0.66,-0.66 1.32,-1.32 2,-2z"/>
  <path id="svg_41" fill="#868686" d="m76.0259,63.99985c0.99,0.33 1.98,0.66 3,1c-0.33,1.65 -0.66,3.3 -1,5c-0.99,0.33 -1.98,0.66 -3,1c-0.04254,-1.99955 -0.04081,-4.00042 0,-6c0.33,-0.33 0.66,-0.66 1,-1z"/>
  <path id="svg_42" fill="#E2E2E2" d="m92.0259,81.99985c0.33,0 0.66,0 1,0c0,2.97 0,5.94 0,9c-1.32,-0.33 -2.64,-0.66 -4,-1c0.99,-2.64 1.98,-5.28 3,-8z"/>
  <path id="svg_43" fill="#CFCFCF" d="m210.0259,31.99985c2.97,1.65 5.94,3.3 9,5c-0.66,0.66 -1.32,1.32 -2,2c-2.49362,-1.20381 -4.68143,-2.45429 -7,-4c0,-0.99 0,-1.98 0,-3z"/>
  <path id="svg_44" fill="#F5F5F5" d="m126.0259,80.99985c1.32,0 2.64,0 4,0c0.33,1.65 0.66,3.3 1,5c-2.475,-0.99 -2.475,-0.99 -5,-2c0,-0.99 0,-1.98 0,-3z"/>
  <path d="m1.54449,3.77762c0.37036,0 0.74072,0 0.74072,0c0.37036,0 0.74072,-0.74075 1.11108,-1.11111c0.37036,-0.37036 -0.0191,-0.48099 0.37036,-1.11111c0.43542,-0.7045 1.11115,-0.74075 1.48151,-0.74075c0.74072,0 1.48151,0 1.85187,0c0.37036,0 0.37036,0 0.37036,0.74075c0,0.74075 0.11383,1.17999 -0.37036,1.85184c-0.30627,0.42493 -0.85559,0.49536 -1.85187,1.11111c-0.44556,0.27539 -1.48151,0.74075 -2.22223,0.74075c-0.74072,0 -1.48145,0 -2.22223,0c-0.37036,0 -0.54028,-0.62723 -0.74072,-1.11111c-0.14172,-0.34216 0,-1.11111 0,-1.85184c0,-0.74075 -0.06531,-1.29123 0.74072,-1.48151c0.36047,-0.08508 1.41626,-0.18008 2.22223,-0.37036c0.72089,-0.1702 1.78687,-0.33411 2.22223,0.37036c0.1947,0.31506 0.55048,1.04584 0.74072,1.85187c0.17017,0.72092 0.37036,1.48148 0.37036,2.59259c0,0.37036 0,1.11111 0,1.48148c0,0 -0.39856,-0.14172 -0.74072,0c-0.48389,0.20044 -0.37036,0.37036 -0.74072,0.37036l-0.74072,0" id="svg_45" fill="none"/>
 </g>
</svg>